# 3ds Max Wavefront OBJ Exporter v0.97b - (c)2007 guruware
# File Created: 11.08.2021 18:24:52

mtllib rock_04.mtl

#
# object Object027
#

v  -1060.5477 5.0041 43.0925
v  -1060.4205 4.8888 45.0047
v  -1060.9646 4.1982 45.5274
v  -1060.8951 4.3694 43.0925
v  -1061.3671 8.2907 43.1045
v  -1061.9988 8.5619 43.3342
v  -1061.8225 8.6387 44.9811
v  -1061.3710 8.3041 44.9811
v  -1061.9519 5.9068 43.2900
v  -1060.4371 5.9068 43.0925
v  -1063.3785 3.6895 43.2150
v  -1064.1222 4.8850 45.0047
v  -1064.8466 5.7598 45.0047
v  -1064.1735 5.7598 43.5156
v  -1064.2065 4.2769 45.9007
v  -1061.7969 4.1331 46.9169
v  -1062.9811 5.2818 46.6879
v  -1064.5553 5.7598 46.9169
v  -1060.9443 5.0919 46.9169
v  -1060.4885 5.7382 45.0047
v  -1060.9226 5.9068 46.9169
v  -1061.9542 3.3472 45.0047
v  -1062.9561 8.1173 43.7124
v  -1064.4607 7.2132 43.0925
v  -1064.7222 7.8222 45.6248
v  -1063.4934 9.1536 45.0047
v  -1061.7969 4.1331 43.0925
v  -1062.9811 5.9068 43.4875
v  -1060.9893 4.6069 46.9169
v  -1061.9519 5.5943 47.2101
v  -1062.3625 8.3509 43.3578
v  -1063.7377 7.7185 46.6013
v  -1062.9617 8.0825 46.9169
v  -1061.7310 8.0797 43.1281
v  -1061.3561 8.0469 45.0047
v  -1061.3561 8.0469 46.9169
v  -1062.3625 8.3509 46.9169
v  -1062.3441 8.5619 45.0047
# 38 vertices

vn 0.6387 -0.3696 -0.6749
vn 0.9164 -0.3952 0.0626
vn 0.4858 -0.8696 0.0882
vn 0.3062 -0.6442 -0.7009
vn 0.7699 0.0415 -0.6368
vn -0.1201 0.8905 -0.4389
vn 0.1370 0.7844 0.6050
vn 0.6493 0.5426 0.5329
vn -0.1647 0.0066 -0.9863
vn 0.7313 0.2556 -0.6323
vn -0.2513 -0.7766 -0.5777
vn -0.4525 -0.8840 -0.1173
vn -0.9224 -0.3437 -0.1760
vn -0.5489 -0.4556 -0.7008
vn -0.5451 -0.8376 -0.0361
vn 0.0034 -0.5835 0.8121
vn -0.0174 0.2299 0.9730
vn -0.6360 -0.0814 0.7674
vn 0.6158 -0.0701 0.7848
vn 0.9225 0.3683 0.1157
vn 0.7473 0.1282 0.6520
vn 0.0223 -0.9996 -0.0198
vn -0.2853 0.6250 -0.7266
vn -0.5152 0.1991 -0.8336
vn -0.8276 0.4162 0.3766
vn -0.2219 0.9651 -0.1390
vn 0.0483 -0.4842 -0.8736
vn -0.0925 0.2517 -0.9634
vn 0.6349 -0.5224 0.5693
vn -0.1082 -0.2360 0.9657
vn -0.4513 0.5720 -0.6849
vn -0.4339 0.6999 0.5673
vn -0.2444 0.4507 0.8586
vn -0.0389 -0.0309 -0.9988
vn 0.7590 0.6414 0.1119
vn 0.4957 0.6179 0.6103
vn -0.0324 0.7838 0.6202
vn 0.1774 0.9828 0.0504
# 38 vertex normals

vt 0.1590 0.3056 0.0000
vt 0.1419 0.3159 0.0000
vt 0.1317 0.3136 0.0000
vt 0.1589 0.2993 0.0000
vt 0.1825 0.3214 0.0000
vt 0.1864 0.3155 0.0000
vt 0.1892 0.3297 0.0000
vt 0.1847 0.3307 0.0000
vt 0.1775 0.3013 0.0000
vt 0.1616 0.3090 0.0000
vt 0.1910 0.2797 0.0000
vt 0.2159 0.2626 0.0000
vt 0.2257 0.2675 0.0000
vt 0.2100 0.2868 0.0000
vt 0.2223 0.2503 0.0000
vt 0.2329 0.2143 0.0000
vt 0.2355 0.2330 0.0000
vt 0.2357 0.2504 0.0000
vt 0.1192 0.3308 0.0000
vt 0.1444 0.3200 0.0000
vt 0.1220 0.3353 0.0000
vt 0.1978 0.2203 0.0000
vt 0.1865 0.2465 0.0000
vt 0.1973 0.3108 0.0000
vt 0.2184 0.2966 0.0000
vt 0.2280 0.3309 0.0000
vt 0.2092 0.3267 0.0000
vt 0.1703 0.2915 0.0000
vt 0.1926 0.2958 0.0000
vt 0.2385 0.2035 0.0000
vt 0.2421 0.2182 0.0000
vt 0.1888 0.3122 0.0000
vt 0.2487 0.2475 0.0000
vt 0.2421 0.2665 0.0000
vt 0.2540 0.2365 0.0000
vt 0.1795 0.3174 0.0000
vt 0.1559 0.3366 0.0000
vt 0.2471 0.2042 0.0000
vt 0.2593 0.2137 0.0000
vt 0.2574 0.2286 0.0000
vt 0.1172 0.3283 0.0000
vt 0.2080 0.3520 0.0000
vt 0.2006 0.3533 0.0000
vt 0.1958 0.3302 0.0000
vt 0.1697 0.2694 0.0000
vt 0.2178 0.3465 0.0000
vt 0.1293 0.3499 0.0000
vt 0.1770 0.2321 0.0000
vt 0.1581 0.2625 0.0000
vt 0.2417 0.2035 0.0000
vt 0.1872 0.2141 0.0000
vt 0.1885 0.3556 0.0000
vt 0.1841 0.3320 0.0000
# 53 texture coords

o Object027
g Object027
usemtl 01
s 2
f 1/1/1 2/2/2 3/3/3 4/4/4 
s 4
f 5/5/5 6/6/6 7/7/7 8/8/8 
s 8
f 1/1/1 4/4/4 9/9/9 10/10/10 
s 16
f 11/11/11 12/12/12 13/13/13 14/14/14 
s 32
f 15/15/15 16/16/16 17/17/17 18/18/18 
s 64
f 19/19/19 2/2/2 20/20/20 21/21/21 
s 2
f 16/22/16 15/15/15 12/12/12 22/23/22 
s 4
f 23/24/23 24/25/24 25/26/25 26/27/26 
s 8
f 27/28/27 11/11/11 14/14/14 28/29/28 
s 32
f 16/16/16 29/30/29 30/31/30 17/17/17 
s 8
f 28/29/28 23/24/23 31/32/31 9/9/9 
s 16
f 18/18/18 32/33/32 25/34/25 13/13/13 
s 32
f 17/17/17 33/35/33 32/33/32 18/18/18 
s 64
f 10/10/10 34/36/34 35/37/35 20/20/20 
s 8
f 14/14/14 24/25/24 23/24/23 28/29/28 
s 32
f 21/38/21 36/39/36 37/40/37 30/31/30 
s 2
f 2/2/2 19/19/19 29/41/29 3/3/3 
s 4
f 26/27/26 33/42/33 37/43/37 38/44/38 
s 16
f 12/12/12 15/15/15 18/18/18 13/13/13 
s 64
f 2/2/2 1/1/1 10/10/10 20/20/20 
s 2
f 12/12/12 11/11/11 27/45/27 22/23/22 
s 4
f 25/26/25 32/46/32 33/42/33 26/27/26 
s 16
f 25/34/25 24/25/24 14/14/14 13/13/13 
s 64
f 35/37/35 36/47/36 21/21/21 20/20/20 
s 2
f 3/48/3 22/23/22 27/45/27 4/49/4 
s 4
f 31/32/31 23/24/23 26/27/26 38/44/38 
s 8
f 4/4/4 27/28/27 28/29/28 9/9/9 
s 32
f 29/30/29 19/50/19 21/38/21 30/31/30 
s 8
f 31/32/31 34/36/34 10/10/10 9/9/9 
s 32
f 37/40/37 33/35/33 17/17/17 30/31/30 
s 2
f 29/51/29 16/22/16 22/23/22 3/48/3 
s 4
f 37/43/37 36/52/36 35/53/35 38/44/38 
s off
f 34/36/34 31/32/31 6/6/6 5/5/5 
f 31/32/31 38/44/38 7/7/7 6/6/6 
f 38/44/38 35/53/35 8/8/8 7/7/7 
f 35/53/35 34/36/34 5/5/5 8/8/8 
# 36 polygons

