# 3ds Max Wavefront OBJ Exporter v0.97b - (c)2007 guruware
# File Created: 29.07.2021 03:43:14

mtllib plate_01.mtl

#
# object Object009
#

v  578.7886 121.8151 -133.0478
v  580.9431 124.7685 -134.2917
v  583.2567 124.7685 -125.6570
v  580.7689 121.8151 -125.6570
v  573.3781 121.8151 -138.4582
v  574.6220 124.7685 -140.6127
v  565.9874 121.8151 -140.4385
v  565.9874 124.7685 -142.9263
v  558.5966 121.8151 -138.4582
v  557.3527 124.7685 -140.6127
v  553.1862 121.8151 -133.0478
v  551.0317 124.7685 -134.2917
v  551.2058 121.8151 -125.6570
v  548.7180 124.7685 -125.6570
v  553.1862 121.8151 -118.2662
v  551.0317 124.7685 -117.0223
v  558.5966 121.8151 -112.8558
v  557.3527 124.7685 -110.7013
v  565.9874 121.8151 -110.8754
v  565.9874 124.7685 -108.3876
v  573.3781 121.8151 -112.8558
v  574.6220 124.7685 -110.7013
v  578.7886 121.8151 -118.2662
v  580.9431 124.7685 -117.0223
v  580.8333 125.0408 -134.2283
v  580.0327 125.0408 -133.7660
v  582.2054 125.0408 -125.6570
v  583.1300 125.0408 -125.6570
v  574.5587 125.0408 -140.5030
v  574.0964 125.0408 -139.7022
v  565.9874 125.0408 -142.7996
v  565.9874 125.0408 -141.8751
v  557.4160 125.0408 -140.5030
v  557.8784 125.0408 -139.7022
v  551.1414 125.0408 -134.2283
v  551.9421 125.0408 -133.7660
v  548.8447 125.0408 -125.6570
v  549.7693 125.0408 -125.6570
v  551.1414 125.0408 -117.0857
v  551.9421 125.0408 -117.5480
v  557.4160 125.0408 -110.8110
v  557.8783 125.0408 -111.6117
v  565.9874 125.0408 -108.5143
v  565.9874 125.0408 -109.4389
v  574.5587 125.0408 -110.8110
v  574.0964 125.0408 -111.6117
v  580.8333 125.0408 -117.0856
v  580.0326 125.0408 -117.5479
v  578.2725 122.3211 -132.7498
v  580.1730 122.3211 -125.6570
v  573.0801 122.3211 -137.9421
v  565.9874 122.3211 -139.8426
v  558.8945 122.3211 -137.9421
v  553.7023 122.3211 -132.7498
v  551.8018 122.3211 -125.6570
v  553.7023 122.3211 -118.5642
v  558.8945 122.3211 -113.3719
v  565.9874 122.3211 -111.4714
v  573.0801 122.3211 -113.3719
v  578.2725 122.3211 -118.5642
v  573.0801 122.3211 -125.6570
v  565.9874 122.3211 -125.6570
v  558.8945 122.3211 -125.6570
# 63 vertices

vn 0.6623 -0.6443 -0.3824
vn 0.8596 -0.1215 -0.4963
vn 0.9926 -0.1216 0.0000
vn 0.7648 -0.6442 0.0000
vn 0.3824 -0.6442 -0.6624
vn 0.4963 -0.1217 -0.8596
vn 0.0000 -0.6442 -0.7648
vn 0.0000 -0.1216 -0.9926
vn -0.3824 -0.6442 -0.6624
vn -0.4963 -0.1217 -0.8596
vn -0.6623 -0.6443 -0.3824
vn -0.8596 -0.1216 -0.4963
vn -0.7648 -0.6442 0.0000
vn -0.9926 -0.1216 0.0000
vn -0.6623 -0.6443 0.3824
vn -0.8596 -0.1216 0.4963
vn -0.3824 -0.6442 0.6624
vn -0.4963 -0.1217 0.8596
vn 0.0000 -0.6442 0.7648
vn 0.0000 -0.1216 0.9926
vn 0.3824 -0.6442 0.6624
vn 0.4963 -0.1217 0.8596
vn 0.6623 -0.6443 0.3824
vn 0.8596 -0.1216 0.4963
vn 0.5155 0.8036 -0.2976
vn -0.3330 0.9231 0.1923
vn -0.3845 0.9231 -0.0000
vn 0.5953 0.8035 -0.0000
vn 0.2977 0.8034 -0.5156
vn -0.1923 0.9231 0.3330
vn 0.0000 0.8035 -0.5954
vn -0.0000 0.9231 0.3845
vn -0.2977 0.8034 -0.5156
vn 0.1923 0.9231 0.3330
vn -0.5156 0.8035 -0.2976
vn 0.3330 0.9231 0.1923
vn -0.5953 0.8035 0.0000
vn 0.3845 0.9231 -0.0000
vn -0.5156 0.8035 0.2976
vn 0.3330 0.9231 -0.1923
vn -0.2977 0.8034 0.5156
vn 0.1923 0.9231 -0.3330
vn 0.0000 0.8035 0.5954
vn -0.0000 0.9231 -0.3845
vn 0.2977 0.8034 0.5156
vn -0.1923 0.9231 -0.3330
vn 0.5155 0.8035 0.2977
vn -0.3330 0.9231 -0.1923
vn -0.4361 0.8639 0.2518
vn -0.5036 0.8639 -0.0000
vn -0.2518 0.8639 0.4361
vn -0.0000 0.8639 0.5036
vn 0.2518 0.8639 0.4362
vn 0.4361 0.8639 0.2518
vn 0.5036 0.8639 -0.0000
vn 0.4361 0.8639 -0.2518
vn 0.2518 0.8639 -0.4361
vn -0.0000 0.8639 -0.5036
vn -0.2518 0.8639 -0.4361
vn -0.4362 0.8639 -0.2518
vn 0.0000 1.0000 -0.0000
# 61 vertex normals

vt 0.3840 0.1797 0.0000
vt 0.3826 0.1927 0.0000
vt 0.3535 0.1845 0.0000
vt 0.3590 0.1727 0.0000
vt 0.4098 0.1780 0.0000
vt 0.4128 0.1908 0.0000
vt 0.4336 0.1680 0.0000
vt 0.4406 0.1790 0.0000
vt 0.4529 0.1507 0.0000
vt 0.4631 0.1588 0.0000
vt 0.4653 0.1280 0.0000
vt 0.4777 0.1323 0.0000
vt 0.4696 0.1025 0.0000
vt 0.4827 0.1025 0.0000
vt 0.4653 0.0770 0.0000
vt 0.4777 0.0727 0.0000
vt 0.4529 0.0543 0.0000
vt 0.4631 0.0462 0.0000
vt 0.4336 0.0370 0.0000
vt 0.4406 0.0260 0.0000
vt 0.4098 0.0270 0.0000
vt 0.4128 0.0143 0.0000
vt 0.3840 0.0253 0.0000
vt 0.3826 0.0123 0.0000
vt 0.3590 0.0323 0.0000
vt 0.3535 0.0205 0.0000
vt 0.3822 0.1936 0.0000
vt 0.3806 0.1963 0.0000
vt 0.3533 0.1887 0.0000
vt 0.3533 0.1855 0.0000
vt 0.4127 0.1918 0.0000
vt 0.4121 0.1948 0.0000
vt 0.3838 0.1966 0.0000
vt 0.3828 0.1937 0.0000
vt 0.4409 0.1800 0.0000
vt 0.4414 0.1831 0.0000
vt 0.4152 0.1941 0.0000
vt 0.4133 0.1917 0.0000
vt 0.4637 0.1596 0.0000
vt 0.4651 0.1624 0.0000
vt 0.4440 0.1814 0.0000
vt 0.4414 0.1797 0.0000
vt 0.4785 0.1329 0.0000
vt 0.4808 0.1351 0.0000
vt 0.4671 0.1599 0.0000
vt 0.4640 0.1592 0.0000
vt 0.4837 0.1028 0.0000
vt 0.4865 0.1041 0.0000
vt 0.4818 0.1321 0.0000
vt 0.4787 0.1324 0.0000
vt 0.4787 0.0726 0.0000
vt 0.4818 0.0729 0.0000
vt 0.4865 0.1009 0.0000
vt 0.4837 0.1022 0.0000
vt 0.4640 0.0458 0.0000
vt 0.4671 0.0451 0.0000
vt 0.4808 0.0700 0.0000
vt 0.4785 0.0721 0.0000
vt 0.4414 0.0253 0.0000
vt 0.4440 0.0236 0.0000
vt 0.4651 0.0426 0.0000
vt 0.4637 0.0454 0.0000
vt 0.4133 0.0134 0.0000
vt 0.4152 0.0109 0.0000
vt 0.4414 0.0219 0.0000
vt 0.4409 0.0250 0.0000
vt 0.3828 0.0113 0.0000
vt 0.3838 0.0084 0.0000
vt 0.4121 0.0102 0.0000
vt 0.4127 0.0132 0.0000
vt 0.3533 0.0195 0.0000
vt 0.3533 0.0163 0.0000
vt 0.3806 0.0087 0.0000
vt 0.3822 0.0114 0.0000
vt 0.4526 0.1306 0.0000
vt 0.4421 0.1259 0.0000
vt 0.4485 0.1019 0.0000
vt 0.4599 0.1032 0.0000
vt 0.4313 0.1528 0.0000
vt 0.4245 0.1435 0.0000
vt 0.4513 0.1327 0.0000
vt 0.4017 0.1613 0.0000
vt 0.4005 0.1499 0.0000
vt 0.4292 0.1540 0.0000
vt 0.3719 0.1540 0.0000
vt 0.3765 0.1435 0.0000
vt 0.3993 0.1613 0.0000
vt 0.3497 0.1327 0.0000
vt 0.3590 0.1259 0.0000
vt 0.3698 0.1528 0.0000
vt 0.3411 0.1032 0.0000
vt 0.3525 0.1019 0.0000
vt 0.3485 0.1306 0.0000
vt 0.3485 0.0733 0.0000
vt 0.3590 0.0780 0.0000
vt 0.3411 0.1007 0.0000
vt 0.3698 0.0511 0.0000
vt 0.3765 0.0604 0.0000
vt 0.3497 0.0712 0.0000
vt 0.3993 0.0425 0.0000
vt 0.4005 0.0540 0.0000
vt 0.3719 0.0499 0.0000
vt 0.4292 0.0499 0.0000
vt 0.4245 0.0604 0.0000
vt 0.4017 0.0425 0.0000
vt 0.4513 0.0712 0.0000
vt 0.4421 0.0780 0.0000
vt 0.4313 0.0511 0.0000
vt 0.4599 0.1007 0.0000
vt 0.4526 0.0733 0.0000
vt 0.4245 0.1019 0.0000
vt 0.4005 0.1019 0.0000
vt 0.3765 0.1019 0.0000
# 113 texture coords

o Object009
g Object009
usemtl 3
s 1
f 1/1/1 2/2/2 3/3/3 4/4/4 
f 5/5/5 6/6/6 2/2/2 1/1/1 
f 7/7/7 8/8/8 6/6/6 5/5/5 
f 9/9/9 10/10/10 8/8/8 7/7/7 
f 11/11/11 12/12/12 10/10/10 9/9/9 
f 13/13/13 14/14/14 12/12/12 11/11/11 
f 15/15/15 16/16/16 14/14/14 13/13/13 
f 17/17/17 18/18/18 16/16/16 15/15/15 
f 19/19/19 20/20/20 18/18/18 17/17/17 
f 21/21/21 22/22/22 20/20/20 19/19/19 
f 23/23/23 24/24/24 22/22/22 21/21/21 
f 4/25/4 3/26/3 24/24/24 23/23/23 
f 25/27/25 26/28/26 27/29/27 28/30/28 
f 29/31/29 30/32/30 26/33/26 25/34/25 
f 31/35/31 32/36/32 30/37/30 29/38/29 
f 33/39/33 34/40/34 32/41/32 31/42/31 
f 35/43/35 36/44/36 34/45/34 33/46/33 
f 37/47/37 38/48/38 36/49/36 35/50/35 
f 39/51/39 40/52/40 38/53/38 37/54/37 
f 41/55/41 42/56/42 40/57/40 39/58/39 
f 43/59/43 44/60/44 42/61/42 41/62/41 
f 45/63/45 46/64/46 44/65/44 43/66/43 
f 47/67/47 48/68/48 46/69/46 45/70/45 
f 28/71/28 27/72/27 48/73/48 47/74/47 
s 2
f 26/75/26 49/76/49 50/77/50 27/78/27 
f 30/79/30 51/80/51 49/76/49 26/81/26 
f 32/82/32 52/83/52 51/80/51 30/84/30 
f 34/85/34 53/86/53 52/83/52 32/87/32 
f 36/88/36 54/89/54 53/86/53 34/90/34 
f 38/91/38 55/92/55 54/89/54 36/93/36 
f 40/94/40 56/95/56 55/92/55 38/96/38 
f 42/97/42 57/98/57 56/95/56 40/99/40 
f 44/100/44 58/101/58 57/98/57 42/102/42 
f 46/103/46 59/104/59 58/101/58 44/105/44 
f 48/106/48 60/107/60 59/104/59 46/108/46 
f 27/109/27 50/77/50 60/107/60 48/110/48 
f 3/3/3 2/2/2 25/27/25 28/30/28 
f 2/2/2 6/6/6 29/31/29 25/34/25 
f 6/6/6 8/8/8 31/35/31 29/38/29 
f 8/8/8 10/10/10 33/39/33 31/42/31 
f 10/10/10 12/12/12 35/43/35 33/46/33 
f 12/12/12 14/14/14 37/47/37 35/50/35 
f 14/14/14 16/16/16 39/51/39 37/54/37 
f 16/16/16 18/18/18 41/55/41 39/58/39 
f 18/18/18 20/20/20 43/59/43 41/62/41 
f 20/20/20 22/22/22 45/63/45 43/66/43 
f 22/22/22 24/24/24 47/67/47 45/70/45 
f 24/24/24 3/26/3 28/71/28 47/74/47 
s 1
f 59/104/59 60/107/60 50/77/50 61/111/61 
f 50/77/50 49/76/49 51/80/51 61/111/61 
f 62/112/61 52/83/52 53/86/53 63/113/61 
f 53/86/53 54/89/54 55/92/55 63/113/61 
f 63/113/61 55/92/55 56/95/56 57/98/57 
f 51/80/51 52/83/52 62/112/61 61/111/61 
f 61/111/61 62/112/61 58/101/58 59/104/59 
s off
f 58/101/58 62/112/61 63/113/61 57/98/57 
# 56 polygons

