# 3ds Max Wavefront OBJ Exporter v0.97b - (c)2007 guruware
# File Created: 29.07.2021 03:38:27

mtllib shelf_01.mtl

#
# object Object023
#

v  1157.7799 192.8038 202.8320
v  1152.2654 161.9460 202.8320
v  1157.7799 161.6876 202.8320
v  1157.7799 160.6876 196.0749
v  1157.7799 160.6876 198.6679
v  1152.0895 160.9616 198.6679
v  1152.0895 160.9616 196.0749
v  1104.5258 187.8416 196.0749
v  1104.5258 187.8416 198.6679
v  1104.4608 192.8038 198.6679
v  1104.4608 192.8038 196.0749
v  1136.8109 183.4118 196.0749
v  1136.8109 183.4118 198.6679
v  1105.5332 186.7360 198.6679
v  1105.5332 186.7360 196.0749
v  1143.8265 179.0465 196.0749
v  1143.8265 179.0465 198.6679
v  1147.1006 170.9395 196.0749
v  1147.1006 170.9395 198.6679
v  1148.8156 163.6120 196.0749
v  1148.8156 163.6120 198.6679
v  1152.2654 161.9460 194.5038
v  1157.7799 192.8038 194.5038
v  1157.7799 161.6876 194.5038
v  1105.4608 192.8038 202.8320
v  1105.5271 187.7422 202.8320
v  1137.7235 183.8206 202.8320
v  1137.7235 183.8206 194.5038
v  1105.5271 187.7422 194.5038
v  1105.4608 192.8038 194.5038
v  1144.5386 179.7486 202.8320
v  1144.5386 179.7486 194.5038
v  1147.5394 171.8380 202.8320
v  1147.5394 171.8380 194.5038
v  1149.7112 164.1736 202.8320
v  1149.7112 164.1736 194.5038
v  1105.5332 186.7360 201.2609
v  1104.5258 187.8416 201.2609
v  1152.0895 160.9616 201.2609
v  1157.7799 160.6876 201.2609
v  1104.4608 192.8038 201.2609
v  1136.8109 183.4118 201.2609
v  1143.8265 179.0465 201.2609
v  1147.1006 170.9395 201.2609
v  1148.8156 163.6120 201.2609
v  1157.7799 192.8038 482.0761
v  1152.2654 161.9460 482.0761
v  1157.7799 161.6876 482.0761
v  1157.7799 160.6876 475.3190
v  1157.7799 160.6876 477.9120
v  1152.0895 160.9616 477.9120
v  1152.0895 160.9616 475.3190
v  1104.5258 187.8416 475.3190
v  1104.5258 187.8416 477.9120
v  1104.4608 192.8038 477.9120
v  1104.4608 192.8038 475.3190
v  1136.8109 183.4118 475.3190
v  1136.8109 183.4118 477.9120
v  1105.5332 186.7360 477.9120
v  1105.5332 186.7360 475.3190
v  1143.8265 179.0465 475.3190
v  1143.8265 179.0465 477.9120
v  1147.1006 170.9395 475.3190
v  1147.1006 170.9395 477.9120
v  1148.8156 163.6120 475.3190
v  1148.8156 163.6120 477.9120
v  1152.2654 161.9460 473.7479
v  1157.7799 192.8038 473.7479
v  1157.7799 161.6876 473.7479
v  1105.4608 192.8038 482.0761
v  1105.5271 187.7422 482.0761
v  1137.7235 183.8206 482.0761
v  1137.7235 183.8206 473.7479
v  1105.5271 187.7422 473.7479
v  1105.4608 192.8038 473.7479
v  1144.5386 179.7486 482.0761
v  1144.5386 179.7486 473.7479
v  1147.5394 171.8380 482.0761
v  1147.5394 171.8380 473.7479
v  1149.7112 164.1736 482.0761
v  1149.7112 164.1736 473.7479
v  1105.5332 186.7360 480.5049
v  1104.5258 187.8416 480.5049
v  1152.0895 160.9616 480.5049
v  1157.7799 160.6876 480.5049
v  1104.4608 192.8038 480.5049
v  1136.8109 183.4118 480.5049
v  1143.8265 179.0465 480.5049
v  1147.1006 170.9395 480.5049
v  1148.8156 163.6120 480.5049
v  1093.5378 191.9205 512.4736
v  1093.5378 198.1491 512.4736
v  1093.5378 198.1491 166.8648
v  1093.5378 191.9205 166.8648
v  1158.4100 191.9205 512.4736
v  1158.4100 191.9205 166.8648
v  1158.4100 198.1491 512.4736
v  1158.4100 198.1491 166.8648
# 98 vertices

vn 0.0000 0.0000 1.0000
vn -0.2221 -0.5117 0.8300
vn -0.0230 -0.4919 0.8703
vn -0.0462 -0.9597 -0.2771
vn -0.0481 -0.9988 -0.0000
vn -0.3563 -0.9344 -0.0000
vn -0.3370 -0.9040 -0.2630
vn -0.9086 -0.3367 -0.2473
vn -0.9301 -0.3673 -0.0000
vn -0.9999 -0.0131 -0.0000
vn -0.9602 -0.0126 -0.2790
vn -0.2901 -0.9365 -0.1968
vn -0.3252 -0.9456 -0.0000
vn -0.4519 -0.8921 -0.0000
vn -0.4194 -0.8735 -0.2473
vn -0.7344 -0.6113 -0.2947
vn -0.7655 -0.6435 -0.0000
vn -0.9362 -0.2867 -0.2035
vn -0.9533 -0.3021 -0.0000
vn -0.8142 -0.5106 -0.2763
vn -0.8472 -0.5312 -0.0000
vn -0.2221 -0.5117 -0.8300
vn 0.0000 0.0000 -1.0000
vn -0.0230 -0.4919 -0.8703
vn -0.4842 -0.0063 0.8749
vn -0.4397 -0.3951 0.8066
vn -0.1800 -0.4515 0.8739
vn -0.1800 -0.4515 -0.8739
vn -0.4397 -0.3951 -0.8066
vn -0.4842 -0.0063 -0.8749
vn -0.3011 -0.2563 0.9185
vn -0.3011 -0.2563 -0.9185
vn -0.5037 -0.1725 0.8465
vn -0.5037 -0.1725 -0.8465
vn -0.4490 -0.2849 0.8469
vn -0.4490 -0.2849 -0.8469
vn -0.4194 -0.8735 0.2473
vn -0.9086 -0.3367 0.2473
vn -0.3370 -0.9040 0.2630
vn -0.0462 -0.9597 0.2771
vn -0.9602 -0.0126 0.2790
vn -0.2901 -0.9365 0.1968
vn -0.7344 -0.6113 0.2947
vn -0.9362 -0.2867 0.2035
vn -0.8142 -0.5106 0.2763
vn -0.4194 -0.8735 0.2472
vn -0.5774 -0.5774 0.5774
vn -0.5774 0.5774 0.5774
vn -0.5774 0.5774 -0.5774
vn -0.5774 -0.5774 -0.5774
vn 0.0000 -0.7071 0.7071
vn 0.0000 -0.7071 -0.7071
vn 0.0000 0.7071 0.7071
vn 0.0000 0.7071 -0.7071
# 54 vertex normals

vt 0.3844 0.7019 0.0000
vt 0.3688 0.5402 0.0000
vt 0.3968 0.5359 0.0000
vt 0.3972 0.9035 0.0000
vt 0.3955 0.9122 0.0000
vt 0.3656 0.9061 0.0000
vt 0.3686 0.8982 0.0000
vt 0.1020 0.7524 0.0000
vt 0.0950 0.7590 0.0000
vt 0.0817 0.7313 0.0000
vt 0.0915 0.7270 0.0000
vt 0.2675 0.7863 0.0000
vt 0.2642 0.7946 0.0000
vt 0.1029 0.7649 0.0000
vt 0.1074 0.7573 0.0000
vt 0.3096 0.8117 0.0000
vt 0.3028 0.8184 0.0000
vt 0.3356 0.8544 0.0000
vt 0.3276 0.8589 0.0000
vt 0.3523 0.8879 0.0000
vt 0.3462 0.8940 0.0000
vt 0.3703 0.8914 0.0000
vt 0.3866 0.7299 0.0000
vt 0.3983 0.8959 0.0000
vt 0.0977 0.7066 0.0000
vt 0.1064 0.6801 0.0000
vt 0.2718 0.6501 0.0000
vt 0.2738 0.7812 0.0000
vt 0.1086 0.7505 0.0000
vt 0.0999 0.7239 0.0000
vt 0.3134 0.6260 0.0000
vt 0.3153 0.8055 0.0000
vt 0.3377 0.5835 0.0000
vt 0.3394 0.8480 0.0000
vt 0.3555 0.5484 0.0000
vt 0.3571 0.8832 0.0000
vt 0.1053 0.6733 0.0000
vt 0.0999 0.6781 0.0000
vt 0.3671 0.5334 0.0000
vt 0.3958 0.5282 0.0000
vt 0.0893 0.7035 0.0000
vt 0.2655 0.6449 0.0000
vt 0.3078 0.6197 0.0000
vt 0.3339 0.5771 0.0000
vt 0.3507 0.5437 0.0000
vt 0.3641 0.5255 0.0000
vt 0.3940 0.5195 0.0000
vt 0.0796 0.6991 0.0000
vt 0.0930 0.6715 0.0000
vt 0.1008 0.6656 0.0000
vt 0.2623 0.6366 0.0000
vt 0.3010 0.6129 0.0000
vt 0.3259 0.5726 0.0000
vt 0.3446 0.5375 0.0000
vt 0.3782 0.2894 0.0000
vt 0.3626 0.1278 0.0000
vt 0.3906 0.1235 0.0000
vt 0.3920 0.4859 0.0000
vt 0.3902 0.4946 0.0000
vt 0.3603 0.4885 0.0000
vt 0.3634 0.4806 0.0000
vt 0.0967 0.3348 0.0000
vt 0.0898 0.3414 0.0000
vt 0.0765 0.3137 0.0000
vt 0.0862 0.3094 0.0000
vt 0.2622 0.3687 0.0000
vt 0.2590 0.3770 0.0000
vt 0.0976 0.3473 0.0000
vt 0.1022 0.3396 0.0000
vt 0.3044 0.3940 0.0000
vt 0.2976 0.4008 0.0000
vt 0.3303 0.4368 0.0000
vt 0.3223 0.4413 0.0000
vt 0.3470 0.4702 0.0000
vt 0.3409 0.4764 0.0000
vt 0.3651 0.4738 0.0000
vt 0.3813 0.3123 0.0000
vt 0.3931 0.4783 0.0000
vt 0.0915 0.2942 0.0000
vt 0.1003 0.2676 0.0000
vt 0.2656 0.2377 0.0000
vt 0.2685 0.3636 0.0000
vt 0.1033 0.3329 0.0000
vt 0.0947 0.3063 0.0000
vt 0.3072 0.2135 0.0000
vt 0.3100 0.3879 0.0000
vt 0.3315 0.1711 0.0000
vt 0.3342 0.4304 0.0000
vt 0.3493 0.1360 0.0000
vt 0.3518 0.4656 0.0000
vt 0.0991 0.2609 0.0000
vt 0.0937 0.2657 0.0000
vt 0.3609 0.1210 0.0000
vt 0.3896 0.1158 0.0000
vt 0.0831 0.2911 0.0000
vt 0.2593 0.2325 0.0000
vt 0.3016 0.2073 0.0000
vt 0.3277 0.1646 0.0000
vt 0.3445 0.1313 0.0000
vt 0.3579 0.1131 0.0000
vt 0.3878 0.1071 0.0000
vt 0.0734 0.2867 0.0000
vt 0.0868 0.2591 0.0000
vt 0.0946 0.2532 0.0000
vt 0.2561 0.2242 0.0000
vt 0.2948 0.2005 0.0000
vt 0.3197 0.1602 0.0000
vt 0.3384 0.1251 0.0000
vt 0.7439 0.0885 0.0000
vt 0.7958 0.0885 0.0000
vt 0.7958 0.9033 0.0000
vt 0.7439 0.9033 0.0000
vt 0.5788 0.0885 0.0000
vt 0.5788 0.9033 0.0000
vt 0.7958 0.0159 0.0000
vt 0.7439 0.0159 0.0000
vt 0.9609 0.9033 0.0000
vt 0.9609 0.0885 0.0000
vt 0.7439 0.9759 0.0000
vt 0.7958 0.9759 0.0000
# 120 texture coords

o Object023
g Object023
usemtl 1
s 1
f 1/1/1 2/2/2 3/3/3 
f 4/4/4 5/5/5 6/6/6 7/7/7 
f 8/8/8 9/9/9 10/10/10 11/11/11 
f 12/12/12 13/13/13 14/14/14 15/15/15 
f 16/16/16 17/17/17 13/13/13 12/12/12 
s 2
f 18/18/18 19/19/19 17/17/17 16/16/16 
f 20/20/20 21/21/21 19/19/19 18/18/18 
s 4
f 7/7/7 6/6/6 21/21/21 20/20/20 
s 1
f 22/22/22 23/23/23 24/24/24 
f 25/25/25 26/26/26 27/27/27 1/1/1 
f 28/28/28 29/29/29 30/30/30 23/23/23 
f 1/1/1 27/27/27 31/31/31 
f 32/32/32 28/28/28 23/23/23 
f 1/1/1 31/31/31 33/33/33 
f 34/34/34 32/32/32 23/23/23 
f 33/33/33 35/35/35 2/2/2 1/1/1 
f 22/22/22 36/36/36 34/34/34 23/23/23 
s 2
f 15/15/15 8/8/8 29/29/29 
f 37/37/37 26/26/26 38/38/38 
s 8
f 22/22/22 24/24/24 4/4/4 7/7/7 
f 20/20/20 36/36/36 22/22/22 7/7/7 
f 18/18/18 34/34/34 36/36/36 20/20/20 
f 16/16/16 32/32/32 34/34/34 18/18/18 
s 4
f 30/30/30 29/29/29 8/8/8 11/11/11 
s 8
f 29/29/29 28/28/28 12/12/12 15/15/15 
f 28/28/28 32/32/32 16/16/16 12/12/12 
f 2/2/2 39/39/39 40/40/40 3/3/3 
s 4
f 25/25/25 41/41/41 38/38/38 26/26/26 
s 8
f 26/26/26 37/37/37 42/42/42 27/27/27 
f 27/27/27 42/42/42 43/43/43 31/31/31 
f 43/43/43 44/44/44 33/33/33 31/31/31 
f 44/44/44 45/45/45 35/35/35 33/33/33 
f 45/45/45 39/39/39 2/2/2 35/35/35 
s 16
f 15/15/15 14/14/14 9/9/9 8/8/8 
s 1
f 40/40/40 39/39/39 6/46/6 5/47/5 
f 38/38/38 41/41/41 10/48/10 9/49/9 
f 42/42/42 37/37/37 14/50/14 13/51/13 
f 43/43/43 42/42/42 13/51/13 17/52/17 
s 2
f 44/44/44 43/43/43 17/52/17 19/53/19 
f 45/45/45 44/44/44 19/53/19 21/54/21 
s 4
f 39/39/39 45/45/45 21/54/21 6/46/6 
s 16
f 37/37/37 38/38/38 9/49/9 14/50/14 
s 1
f 46/55/1 47/56/2 48/57/3 
f 49/58/4 50/59/5 51/60/6 52/61/7 
f 53/62/8 54/63/9 55/64/10 56/65/11 
f 57/66/12 58/67/13 59/68/14 60/69/15 
f 61/70/16 62/71/17 58/67/13 57/66/12 
s 2
f 63/72/18 64/73/19 62/71/17 61/70/16 
f 65/74/20 66/75/21 64/73/19 63/72/18 
s 4
f 52/61/7 51/60/6 66/75/21 65/74/20 
s 1
f 67/76/22 68/77/23 69/78/24 
f 70/79/25 71/80/26 72/81/27 46/55/1 
f 73/82/28 74/83/29 75/84/30 68/77/23 
f 46/55/1 72/81/27 76/85/31 
f 77/86/32 73/82/28 68/77/23 
f 46/55/1 76/85/31 78/87/33 
f 79/88/34 77/86/32 68/77/23 
f 78/87/33 80/89/35 47/56/2 46/55/1 
f 67/76/22 81/90/36 79/88/34 68/77/23 
s 2
f 60/69/15 53/62/8 74/83/29 
f 82/91/46 71/80/26 83/92/38 
s 8
f 67/76/22 69/78/24 49/58/4 52/61/7 
f 65/74/20 81/90/36 67/76/22 52/61/7 
f 63/72/18 79/88/34 81/90/36 65/74/20 
f 61/70/16 77/86/32 79/88/34 63/72/18 
s 4
f 75/84/30 74/83/29 53/62/8 56/65/11 
s 8
f 74/83/29 73/82/28 57/66/12 60/69/15 
f 73/82/28 77/86/32 61/70/16 57/66/12 
f 47/56/2 84/93/39 85/94/40 48/57/3 
s 4
f 70/79/25 86/95/41 83/92/38 71/80/26 
s 8
f 71/80/26 82/91/46 87/96/42 72/81/27 
f 72/81/27 87/96/42 88/97/43 76/85/31 
f 88/97/43 89/98/44 78/87/33 76/85/31 
f 89/98/44 90/99/45 80/89/35 78/87/33 
f 90/99/45 84/93/39 47/56/2 80/89/35 
s 16
f 60/69/15 59/68/14 54/63/9 53/62/8 
s 1
f 85/94/40 84/93/39 51/100/6 50/101/5 
f 83/92/38 86/95/41 55/102/10 54/103/9 
f 87/96/42 82/91/46 59/104/14 58/105/13 
f 88/97/43 87/96/42 58/105/13 62/106/17 
s 2
f 89/98/44 88/97/43 62/106/17 64/107/19 
f 90/99/45 89/98/44 64/107/19 66/108/21 
s 4
f 84/93/39 90/99/45 66/108/21 51/100/6 
s 16
f 82/91/46 83/92/38 54/103/9 59/104/14 
s 4
f 91/109/47 92/110/48 93/111/49 94/112/50 
s 8
f 95/113/51 91/109/47 94/112/50 96/114/52 
s 16
f 97/115/53 92/110/48 91/109/47 95/116/51 
s 32
f 98/117/54 93/111/49 92/110/48 97/118/53 
s 64
f 96/119/52 94/112/50 93/111/49 98/120/54 
# 73 polygons - 16 triangles

