# 3ds Max Wavefront OBJ Exporter v0.97b - (c)2007 guruware
# File Created: 11.08.2021 18:24:39

mtllib rock_03.mtl

#
# object Object026
#

v  -1067.0042 5.0041 43.0925
v  -1066.8770 4.8888 45.0047
v  -1067.2896 3.9695 45.0047
v  -1067.3516 4.3694 43.0925
v  -1067.8235 8.2907 43.1045
v  -1068.4551 8.5619 43.3342
v  -1068.2789 8.6387 44.9811
v  -1067.8273 8.3041 44.9811
v  -1068.4082 5.9068 43.2900
v  -1066.8936 5.9068 43.0925
v  -1069.8348 3.6895 43.2150
v  -1071.0323 4.3655 45.0047
v  -1071.3029 5.7598 45.0047
v  -1070.6299 5.7598 43.5156
v  -1071.0323 4.3655 46.9169
v  -1068.2533 4.1331 46.9169
v  -1069.4374 5.2818 47.5034
v  -1071.0117 5.7598 46.9169
v  -1067.4006 5.0919 46.9169
v  -1066.9449 5.7382 45.0047
v  -1067.3789 5.9068 46.9169
v  -1068.4106 3.3472 45.0047
v  -1069.4124 8.1173 43.7124
v  -1070.9171 7.2133 43.0925
v  -1070.6782 7.8222 45.0047
v  -1069.9497 7.9077 45.0047
v  -1068.2533 4.1331 43.0925
v  -1069.4374 5.9068 43.4875
v  -1067.4456 4.6069 46.9169
v  -1068.4082 5.5943 47.2101
v  -1068.8190 8.3509 43.3578
v  -1070.1940 7.7185 46.6013
v  -1069.4181 8.0825 46.9169
v  -1068.1873 8.0797 43.1281
v  -1067.8124 8.0469 45.0047
v  -1067.8124 8.0469 46.9169
v  -1068.8190 8.3509 46.9169
v  -1068.8004 8.5620 45.0047
# 38 vertices

vn 0.6387 -0.3696 -0.6749
vn 0.9568 -0.2748 0.0952
vn 0.5332 -0.8452 0.0383
vn 0.2892 -0.6168 -0.7320
vn 0.7699 0.0415 -0.6368
vn -0.1201 0.8905 -0.4389
vn 0.1370 0.7844 0.6050
vn 0.6493 0.5426 0.5329
vn -0.1647 0.0066 -0.9863
vn 0.7313 0.2556 -0.6323
vn -0.2025 -0.7447 -0.6360
vn -0.6883 -0.7050 -0.1708
vn -0.9888 0.0792 -0.1266
vn -0.5489 -0.4556 -0.7008
vn -0.5973 -0.5559 0.5781
vn 0.1371 -0.8389 0.5267
vn -0.1367 -0.3223 0.9367
vn -0.7340 0.3285 0.5945
vn 0.6158 -0.0701 0.7848
vn 0.9225 0.3683 0.1157
vn 0.7473 0.1282 0.6520
vn 0.0279 -0.9996 -0.0000
vn -0.2682 0.8350 -0.4805
vn -0.5872 0.1885 -0.7872
vn -0.5252 0.8492 0.0551
vn -0.1486 0.9888 0.0094
vn 0.0483 -0.4842 -0.8736
vn -0.0925 0.2517 -0.9634
vn 0.6173 -0.5156 0.5942
vn 0.2552 0.1168 0.9598
vn -0.4513 0.5720 -0.6849
vn -0.4827 0.7822 0.3939
vn -0.2814 0.7630 0.5819
vn -0.0389 -0.0309 -0.9988
vn 0.7590 0.6414 0.1119
vn 0.4957 0.6179 0.6103
vn -0.0324 0.7838 0.6202
vn -0.0942 0.9942 0.0520
# 38 vertex normals

vt 0.1134 0.1859 0.0000
vt 0.1241 0.1779 0.0000
vt 0.1273 0.1821 0.0000
vt 0.1144 0.1888 0.0000
vt 0.0884 0.1862 0.0000
vt 0.0905 0.1930 0.0000
vt 0.0773 0.1862 0.0000
vt 0.0794 0.1818 0.0000
vt 0.1054 0.1961 0.0000
vt 0.1112 0.1845 0.0000
vt 0.1173 0.2162 0.0000
vt 0.1197 0.2517 0.0000
vt 0.1110 0.2557 0.0000
vt 0.1000 0.2303 0.0000
vt 0.1787 0.1464 0.0000
vt 0.1527 0.1651 0.0000
vt 0.1594 0.1506 0.0000
vt 0.1748 0.1392 0.0000
vt 0.1411 0.1663 0.0000
vt 0.1221 0.1749 0.0000
vt 0.1388 0.1630 0.0000
vt 0.1499 0.1759 0.0000
vt 0.1703 0.2083 0.0000
vt 0.1476 0.2215 0.0000
vt 0.1331 0.1919 0.0000
vt 0.0873 0.2047 0.0000
vt 0.0860 0.2310 0.0000
vt 0.0626 0.2142 0.0000
vt 0.0668 0.2052 0.0000
vt 0.1148 0.1963 0.0000
vt 0.1020 0.2098 0.0000
vt 0.1428 0.1682 0.0000
vt 0.1494 0.1566 0.0000
vt 0.0915 0.1970 0.0000
vt 0.1214 0.2805 0.0000
vt 0.1029 0.2844 0.0000
vt 0.0965 0.2606 0.0000
vt 0.1503 0.1379 0.0000
vt 0.1599 0.1324 0.0000
vt 0.0935 0.1864 0.0000
vt 0.1102 0.1615 0.0000
vt 0.1345 0.1507 0.0000
vt 0.1435 0.1413 0.0000
vt 0.0472 0.1876 0.0000
vt 0.0508 0.1806 0.0000
vt 0.0727 0.1911 0.0000
vt 0.1298 0.2772 0.0000
vt 0.0462 0.1989 0.0000
vt 0.0567 0.1691 0.0000
vt 0.0788 0.1805 0.0000
# 50 texture coords

o Object026
g Object026
usemtl 01
s 2
f 1/1/1 2/2/2 3/3/3 4/4/4 
s 4
f 5/5/5 6/6/6 7/7/7 8/8/8 
s 8
f 1/1/1 4/4/4 9/9/9 10/10/10 
s 16
f 11/11/11 12/12/12 13/13/13 14/14/14 
s 32
f 15/15/15 16/16/16 17/17/17 18/18/18 
s 64
f 19/19/19 2/2/2 20/20/20 21/21/21 
s 2
f 16/22/16 15/23/15 12/24/12 22/25/22 
s 4
f 23/26/23 24/27/24 25/28/25 26/29/26 
s 8
f 27/30/27 11/11/11 14/14/14 28/31/28 
s 32
f 16/16/16 29/32/29 30/33/30 17/17/17 
s 8
f 28/31/28 23/26/23 31/34/31 9/9/9 
s 16
f 18/35/18 32/36/32 25/37/25 13/13/13 
s 32
f 17/17/17 33/38/33 32/39/32 18/18/18 
s 64
f 10/10/10 34/40/34 35/41/35 20/20/20 
s 8
f 14/14/14 24/27/24 23/26/23 28/31/28 
s 32
f 21/21/21 36/42/36 37/43/37 30/33/30 
s 2
f 2/2/2 19/19/19 29/32/29 3/3/3 
s 4
f 26/29/26 33/44/33 37/45/37 38/46/38 
s 16
f 12/12/12 15/47/15 18/35/18 13/13/13 
s 64
f 2/2/2 1/1/1 10/10/10 20/20/20 
s 2
f 12/24/12 11/11/11 27/30/27 22/25/22 
s 4
f 25/28/25 32/48/32 33/44/33 26/29/26 
s 16
f 25/37/25 24/27/24 14/14/14 13/13/13 
s 64
f 35/41/35 36/42/36 21/21/21 20/20/20 
s 2
f 3/3/3 22/25/22 27/30/27 4/4/4 
s 4
f 31/34/31 23/26/23 26/29/26 38/46/38 
s 8
f 4/4/4 27/30/27 28/31/28 9/9/9 
s 32
f 29/32/29 19/19/19 21/21/21 30/33/30 
s 8
f 31/34/31 34/40/34 10/10/10 9/9/9 
s 32
f 37/43/37 33/38/33 17/17/17 30/33/30 
s 2
f 29/32/29 16/22/16 22/25/22 3/3/3 
s 4
f 37/45/37 36/49/36 35/50/35 38/46/38 
s off
f 34/40/34 31/34/31 6/6/6 5/5/5 
f 31/34/31 38/46/38 7/7/7 6/6/6 
f 38/46/38 35/50/35 8/8/8 7/7/7 
f 35/50/35 34/40/34 5/5/5 8/8/8 
# 36 polygons

