# 3ds Max Wavefront OBJ Exporter v0.97b - (c)2007 guruware
# File Created: 29.07.2021 03:40:45

mtllib stair_01.mtl

#
# object Object003
#

v  2432.2253 5.7939 1058.0673
v  2432.2253 5.7939 770.2579
v  2407.9856 5.7939 770.2579
v  2407.9856 5.7939 1058.0673
v  2432.2253 -8.6598 1058.0673
v  2432.2253 -8.6598 770.2579
v  2456.4651 -8.6598 1058.0673
v  2456.4651 -8.6598 770.2579
v  2456.4651 -23.1135 1058.0673
v  2456.4651 -23.1135 770.2579
v  2480.7048 -23.1135 1058.0673
v  2480.7048 -23.1135 770.2579
v  2480.7048 -37.5673 1058.0673
v  2480.7048 -37.5673 770.2579
v  2504.9446 -37.5673 1058.0673
v  2504.9446 -37.5673 770.2579
v  2504.9446 -52.0210 1058.0673
v  2504.9446 -52.0210 770.2579
v  2529.1843 -52.0210 1058.0673
v  2529.1843 -52.0210 770.2579
v  2529.1843 -66.4747 1058.0673
v  2529.1843 -66.4747 770.2579
v  2553.4241 -66.4747 1058.0673
v  2553.4241 -66.4747 770.2579
v  2553.4243 -80.9284 1058.0673
v  2553.4243 -80.9284 770.2579
v  2577.6641 -80.9284 1058.0673
v  2577.6641 -80.9284 770.2579
v  2577.6641 -95.3822 1058.0673
v  2577.6641 -95.3822 770.2579
v  2601.9038 -95.3822 1058.0673
v  2601.9038 -95.3822 770.2579
v  2601.9038 -109.8359 1058.0673
v  2601.9038 -109.8359 770.2579
v  2626.1436 -109.8359 1058.0673
v  2626.1436 -109.8359 770.2579
v  2626.1436 -124.2896 1058.0673
v  2626.1436 -124.2896 770.2579
v  2650.3833 -124.2896 1058.0673
v  2650.3833 -124.2896 770.2579
v  2650.3833 -138.7433 1058.0673
v  2650.3833 -138.7433 770.2579
v  2674.6230 -138.7433 1058.0673
v  2674.6230 -138.7433 770.2579
v  2674.6230 -153.1971 1058.0673
v  2674.6230 -153.1971 770.2579
# 46 vertices

vn 0.7071 0.7071 -0.0000
vn 0.0000 1.0000 -0.0000
vn 1.0000 0.0000 -0.0000
# 3 vertex normals

vt 0.3020 0.9567 -0.7500
vt 0.0180 0.9567 -0.7500
vt 0.0180 0.9813 0.7500
vt 0.3020 0.9813 -0.7500
vt 0.3020 0.9421 -0.7500
vt 0.0180 0.9421 -0.7500
vt 0.3020 0.9175 -0.7500
vt 0.0180 0.9175 -0.7500
vt 0.3020 0.9029 -0.7500
vt 0.0180 0.9029 -0.7500
vt 0.3020 0.8783 -0.7500
vt 0.0180 0.8783 -0.7500
vt 0.3020 0.8636 -0.7500
vt 0.0180 0.8636 -0.7500
vt 0.3020 0.8390 -0.7500
vt 0.0180 0.8390 -0.7500
vt 0.3020 0.8244 -0.7500
vt 0.0180 0.8244 -0.7500
vt 0.3020 0.7998 -0.7500
vt 0.0180 0.7998 -0.7500
vt 0.3020 0.7851 -0.7500
vt 0.0180 0.7851 -0.7500
vt 0.3020 0.7606 -0.7500
vt 0.0180 0.7606 -0.7500
vt 0.3020 0.7459 -0.7500
vt 0.0180 0.7459 -0.7500
vt 0.3020 0.7213 -0.7500
vt 0.0180 0.7213 -0.7500
vt 0.3020 0.7066 -0.7500
vt 0.0180 0.7066 -0.7500
vt 0.3020 0.6820 -0.7500
vt 0.0180 0.6820 -0.7500
vt 0.3020 0.6674 -0.7500
vt 0.0180 0.6674 -0.7500
vt 0.3020 0.6428 -0.7500
vt 0.0180 0.6428 -0.7500
vt 0.3020 0.6281 -0.7500
vt 0.0180 0.6281 -0.7500
vt 0.3020 0.6036 -0.7500
vt 0.0180 0.6036 -0.7500
vt 0.3020 0.5889 -0.7500
vt 0.0180 0.5889 -0.7500
vt 0.3020 0.5643 -0.7500
vt 0.0180 0.5643 -0.7500
vt 0.3020 0.5497 -0.7500
vt 0.0180 0.5497 -0.2500
# 46 texture coords

o Object003
g Object003
usemtl 2
s 2
f 1/1/1 2/2/1 3/3/2 4/4/2 
s 4
f 5/5/1 6/6/1 2/2/1 1/1/1 
s 2
f 7/7/1 8/8/1 6/6/1 5/5/1 
s 4
f 9/9/1 10/10/1 8/8/1 7/7/1 
s 2
f 11/11/1 12/12/1 10/10/1 9/9/1 
s 4
f 13/13/1 14/14/1 12/12/1 11/11/1 
s 2
f 15/15/1 16/16/1 14/14/1 13/13/1 
s 4
f 17/17/1 18/18/1 16/16/1 15/15/1 
s 2
f 19/19/1 20/20/1 18/18/1 17/17/1 
s 4
f 21/21/1 22/22/1 20/20/1 19/19/1 
s 2
f 23/23/1 24/24/1 22/22/1 21/21/1 
s 4
f 25/25/1 26/26/1 24/24/1 23/23/1 
s 2
f 27/27/1 28/28/1 26/26/1 25/25/1 
s 4
f 29/29/1 30/30/1 28/28/1 27/27/1 
s 2
f 31/31/1 32/32/1 30/30/1 29/29/1 
s 4
f 33/33/1 34/34/1 32/32/1 31/31/1 
s 2
f 35/35/1 36/36/1 34/34/1 33/33/1 
s 4
f 37/37/1 38/38/1 36/36/1 35/35/1 
s 2
f 39/39/1 40/40/1 38/38/1 37/37/1 
s 4
f 41/41/1 42/42/1 40/40/1 39/39/1 
s 2
f 43/43/1 44/44/1 42/42/1 41/41/1 
s 4
f 45/45/3 46/46/3 44/44/1 43/43/1 
# 22 polygons

