# 3ds Max Wavefront OBJ Exporter v0.97b - (c)2007 guruware
# File Created: 29.07.2021 04:18:02

mtllib wall_01.mtl

#
# object Plane001
#

v  -1563.7084 -8.6838 -1369.1582
v  -1287.0897 -8.6838 -1369.1582
v  -1287.0897 267.9348 -1369.1582
v  -1563.7084 267.9348 -1369.1582
# 4 vertices

vn -0.0000 -0.0000 1.0000
# 1 vertex normals

vt 0.0200 0.0200 0.0000
vt 0.9800 0.0200 0.0000
vt 0.9800 0.9800 0.0000
vt 0.0200 0.9800 0.0000
# 4 texture coords

o Plane001
g Plane001
usemtl 04___Default
s 1
f 1/1/1 2/2/1 3/3/1 4/4/1 
# 1 polygons

