# 3ds Max Wavefront OBJ Exporter v0.97b - (c)2007 guruware
# File Created: 29.07.2021 03:45:12

mtllib book_06.mtl

#
# object Object015
#

v  549.6901 127.0094 -337.4646
v  582.2847 127.0094 -337.4646
v  582.2847 129.1630 -339.4211
v  549.6901 129.1630 -339.4211
v  582.2847 121.8259 -362.6481
v  582.2847 121.8259 -339.4211
v  549.6901 121.8259 -339.4211
v  549.6901 121.8259 -362.6481
v  582.2847 129.1630 -362.6481
v  549.6901 129.1630 -362.6481
v  582.2847 123.9794 -337.4646
v  549.6901 123.9794 -337.4646
# 12 vertices

vn -0.6343 0.2787 0.7211
vn 0.6343 0.2787 0.7211
vn 0.6264 0.7128 0.3155
vn -0.6264 0.7128 0.3155
vn 0.5774 -0.5774 -0.5774
vn 0.6264 -0.7129 0.3155
vn -0.6264 -0.7129 0.3155
vn -0.5774 -0.5774 -0.5774
vn 0.5774 0.5774 -0.5774
vn -0.5774 0.5774 -0.5774
vn 0.6343 -0.2787 0.7211
vn -0.6343 -0.2787 0.7211
# 12 vertex normals

vt 0.5778 0.4803 0.0000
vt 0.6309 0.4803 0.0000
vt 0.6309 0.4850 0.0000
vt 0.5778 0.4850 0.0000
vt 0.6309 0.4328 0.0000
vt 0.6309 0.4706 0.0000
vt 0.5778 0.4706 0.0000
vt 0.5778 0.4328 0.0000
vt 0.6309 0.4209 0.0000
vt 0.6686 0.4209 0.0000
vt 0.6686 0.4328 0.0000
vt 0.5778 0.5228 0.0000
vt 0.6309 0.5228 0.0000
vt 0.6309 0.4754 0.0000
vt 0.5778 0.4754 0.0000
vt 0.5778 0.4209 0.0000
vt 0.5400 0.4328 0.0000
vt 0.5400 0.4209 0.0000
vt 0.5369 0.4293 0.0000
vt 0.5369 0.4244 0.0000
vt 0.6718 0.4244 0.0000
vt 0.6718 0.4293 0.0000
# 22 texture coords

o Object015
g Object015
usemtl 3
s 1
f 1/1/1 2/2/2 3/3/3 4/4/4 
s 4
f 5/5/5 6/6/6 7/7/7 8/8/8 
s 2
f 9/9/9 3/10/3 6/11/6 5/5/5 
s 4
f 10/12/10 4/4/4 3/3/3 9/13/9 
s 1
f 7/7/7 6/6/6 11/14/11 12/15/12 
f 12/15/12 11/14/11 2/2/2 1/1/1 
f 8/8/8 10/16/10 9/9/9 5/5/5 
s 2
f 10/16/10 8/8/8 7/17/7 4/18/4 
s off
f 7/17/7 12/19/12 1/20/1 4/18/4 
s 2
f 2/21/2 11/22/11 6/11/6 3/10/3 
# 10 polygons

