# 3ds Max Wavefront OBJ Exporter v0.97b - (c)2007 guruware
# File Created: 11.08.2021 18:22:45

mtllib pillar_01.mtl

#
# object Object021
#

v  -1116.6617 7.7710 -26.9227
v  -1109.4561 7.7710 -4.7456
v  -1109.4561 0.0000 -4.7453
v  -1116.6617 0.0000 -26.9227
v  -1135.5269 7.7709 -40.6290
v  -1135.5269 0.0000 -40.6290
v  -1158.8453 7.7709 -40.6288
v  -1158.8455 0.0000 -40.6287
v  -1177.7104 7.7710 -26.9225
v  -1177.7108 0.0000 -26.9224
v  -1184.9161 7.7710 -4.7454
v  -1184.9160 0.0000 -4.7451
v  -1177.7104 7.7710 17.4316
v  -1177.7102 0.0000 17.4317
v  -1158.8453 7.7710 31.1379
v  -1158.8452 0.0001 31.1379
v  -1135.5267 7.7710 31.1379
v  -1135.5269 0.0000 31.1379
v  -1116.6616 7.7710 17.4316
v  -1116.6619 0.0000 17.4317
v  -1126.0476 33.1456 -8.1950
v  -1124.9268 29.3044 -4.7455
v  -1129.1780 29.3044 -17.8291
v  -1128.0571 33.1456 -14.3797
v  -1132.1122 33.1456 -19.9611
v  -1140.3075 29.3044 -25.9153
v  -1137.3733 33.1456 -23.7835
v  -1143.9346 33.1456 -25.9153
v  -1154.0646 29.3044 -25.9153
v  -1150.4375 33.1456 -25.9153
v  -1156.9988 33.1456 -23.7835
v  -1165.1941 29.3044 -17.8291
v  -1162.2599 33.1456 -19.9611
v  -1166.3149 33.1456 -14.3797
v  -1169.4453 29.3044 -4.7455
v  -1168.3245 33.1456 -8.1950
v  -1168.3245 33.1456 -1.2960
v  -1165.1941 29.3044 8.3381
v  -1166.3149 33.1456 4.8887
v  -1162.2599 33.1456 10.4701
v  -1154.0646 29.3044 16.4243
v  -1156.9988 33.1456 14.2923
v  -1150.4375 33.1456 16.4243
v  -1140.3075 29.3044 16.4243
v  -1143.9346 33.1456 16.4243
v  -1137.3733 33.1456 14.2923
v  -1129.1780 29.3044 8.3381
v  -1132.1122 33.1456 10.4701
v  -1128.0571 33.1456 4.8887
v  -1126.0476 33.1456 -1.2960
v  -1114.2916 26.4578 -4.7455
v  -1120.5739 26.4578 -24.0805
v  -1120.5739 26.4578 14.5894
v  -1137.0211 26.4578 26.5389
v  -1157.3510 26.4578 26.5389
v  -1173.7982 26.4578 14.5894
v  -1180.0806 26.4578 -4.7456
v  -1173.7981 26.4578 -24.0805
v  -1157.3510 26.4578 -36.0300
v  -1137.0211 26.4578 -36.0300
v  -1111.9248 23.1399 -4.7456
v  -1111.9249 11.5103 -4.7455
v  -1118.6592 11.5103 -25.4716
v  -1118.6592 23.1398 -25.4717
v  -1136.2897 11.5103 -38.2809
v  -1136.2898 23.1398 -38.2809
v  -1158.0824 11.5103 -38.2808
v  -1158.0822 23.1398 -38.2810
v  -1175.7130 11.5103 -25.4714
v  -1175.7126 23.1399 -25.4717
v  -1182.4473 11.5103 -4.7455
v  -1182.4473 23.1399 -4.7457
v  -1175.7129 11.5103 15.9804
v  -1175.7130 23.1399 15.9803
v  -1158.0824 11.5103 28.7899
v  -1158.0824 23.1399 28.7898
v  -1136.2897 11.5103 28.7899
v  -1136.2897 23.1399 28.7899
v  -1118.6592 11.5103 15.9804
v  -1118.6592 23.1399 15.9804
v  -1120.3407 24.4160 -24.2499
v  -1114.0034 24.4160 -4.7456
v  -1120.3407 24.4160 14.7587
v  -1136.9320 24.4160 26.8131
v  -1157.4401 24.4160 26.8131
v  -1174.0315 24.4160 14.7587
v  -1180.3688 24.4160 -4.7457
v  -1174.0311 24.4160 -24.2500
v  -1157.4399 24.4160 -36.3042
v  -1136.9320 24.4160 -36.3041
v  -1114.0033 10.2342 -4.7455
v  -1120.3407 10.2342 -24.2498
v  -1136.9320 10.2342 -36.3041
v  -1157.4401 10.2342 -36.3041
v  -1174.0315 10.2342 -24.2498
v  -1180.3688 10.2342 -4.7455
v  -1174.0314 10.2342 14.7587
v  -1157.4401 10.2342 26.8131
v  -1136.9320 10.2342 26.8131
v  -1120.3407 10.2342 14.7587
v  -1114.0033 8.9030 -4.7455
v  -1120.3407 8.9030 -24.2498
v  -1136.9320 8.9030 -36.3041
v  -1157.4402 8.9030 -36.3039
v  -1174.0316 8.9030 -24.2497
v  -1180.3687 8.9030 -4.7454
v  -1174.0314 8.9030 14.7587
v  -1157.4401 8.9030 26.8131
v  -1136.9320 8.9030 26.8131
v  -1120.3407 8.9030 14.7587
v  -1130.2699 30.5962 -17.0653
v  -1129.5188 33.1456 -14.7739
v  -1143.1729 33.1456 -24.7073
v  -1140.7307 30.5948 -24.6542
v  -1153.6985 30.5947 -24.6366
v  -1151.3054 33.1456 -24.6133
v  -1164.9910 33.1456 -14.6996
v  -1164.1440 30.5936 -17.0161
v  -1168.1187 30.5928 -4.7230
v  -1167.3790 33.1456 -7.0221
v  -1162.1681 33.1456 9.0411
v  -1164.1140 30.5933 7.5661
v  -1153.7542 30.6007 15.1204
v  -1155.8904 33.1456 13.7943
v  -1138.4888 33.1456 13.7921
v  -1140.6208 30.6016 15.1193
v  -1130.2601 30.5965 7.5597
v  -1132.2040 33.1456 9.0276
v  -1126.9587 33.1456 -7.1060
v  -1126.2603 30.5967 -4.7630
v  -1142.9590 33.1456 15.0279
v  -1151.4177 33.1456 15.0255
v  -1129.4830 33.1456 5.2618
v  -1126.9929 33.1456 -2.4604
v  -1132.2117 33.1456 -18.5602
v  -1138.7600 33.1456 -23.2471
v  -1155.7537 33.1456 -23.2653
v  -1162.1937 33.1456 -18.4138
v  -1167.4232 33.1456 -2.3715
v  -1164.8850 33.1456 5.2672
v  -1150.4375 109.3439 16.4243
v  -1143.9346 109.1632 16.4243
v  -1142.9590 108.9748 15.7231
v  -1138.4888 107.2758 14.7079
v  -1137.3733 107.8504 14.2923
v  -1132.1122 107.5665 10.4701
v  -1132.2040 107.9855 9.0276
v  -1129.4830 106.7484 5.2618
v  -1128.0571 108.4268 4.8887
v  -1126.0476 106.7974 -1.2960
v  -1126.9929 107.1586 -2.4604
v  -1126.9587 107.5975 -7.1060
v  -1126.0476 107.1830 -8.1950
v  -1128.0571 104.4549 -14.3797
v  -1129.5188 102.7322 -14.7739
v  -1132.2117 100.2043 -18.5602
v  -1132.1122 101.7776 -19.9611
v  -1137.3733 101.8736 -23.7835
v  -1138.7600 101.0517 -23.2471
v  -1143.1729 102.8587 -24.7073
v  -1143.9346 103.4450 -25.9153
v  -1150.4375 103.6125 -25.9153
v  -1151.3054 104.7771 -24.6133
v  -1155.7537 104.2583 -23.2653
v  -1156.9988 107.6007 -23.7835
v  -1162.2599 106.6187 -19.9611
v  -1162.1937 107.2269 -18.4138
v  -1164.9910 106.6738 -14.6996
v  -1166.3149 107.6678 -14.3797
v  -1168.3245 109.0185 -8.1951
v  -1167.3790 108.7831 -7.0221
v  -1167.4232 108.9689 -2.3715
v  -1168.3245 109.3181 -1.2960
v  -1166.3149 114.5359 4.8887
v  -1164.8850 113.7733 5.2672
v  -1162.1681 114.9525 9.0411
v  -1162.2599 113.2195 10.4701
v  -1156.9988 113.0583 14.2923
v  -1155.8904 110.4456 14.5532
v  -1151.4177 110.4938 15.9753
# 180 vertices

vn 0.6459 0.6022 -0.4693
vn 0.7984 0.6022 -0.0000
vn 1.0000 0.0000 0.0000
vn 0.8090 0.0000 -0.5878
vn 0.2467 0.6022 -0.7593
vn 0.3090 0.0000 -0.9511
vn -0.2467 0.6022 -0.7593
vn -0.3090 -0.0000 -0.9511
vn -0.6459 0.6022 -0.4693
vn -0.8090 0.0000 -0.5878
vn -0.7984 0.6022 0.0000
vn -1.0000 -0.0000 0.0000
vn -0.6459 0.6022 0.4693
vn -0.8090 -0.0000 0.5878
vn -0.2467 0.6022 0.7593
vn -0.3090 -0.0000 0.9511
vn 0.2467 0.6022 0.7593
vn 0.3090 -0.0000 0.9511
vn 0.6459 0.6022 0.4693
vn 0.8090 -0.0000 0.5878
vn 0.9872 0.1591 0.0148
vn 0.3945 0.9189 -0.0005
vn 0.3188 0.9189 -0.2325
vn 0.7937 0.1559 -0.5880
vn 0.8077 0.1595 -0.5676
vn 0.1216 0.9188 -0.3755
vn 0.2952 0.1566 -0.9425
vn 0.3183 0.1586 -0.9346
vn -0.1234 0.9188 -0.3750
vn -0.3110 0.1540 -0.9379
vn -0.2873 0.1612 -0.9442
vn -0.3202 0.9188 -0.2310
vn -0.8032 0.1544 -0.5753
vn -0.7881 0.1606 -0.5942
vn -0.3948 0.9188 0.0007
vn -0.9878 0.1558 0.0090
vn -0.9871 0.1592 -0.0150
vn -0.3192 0.9188 0.2323
vn -0.7927 0.1567 0.5891
vn -0.8066 0.1582 0.5695
vn -0.1252 0.9187 0.3745
vn -0.2787 0.1664 0.9459
vn -0.3042 0.1498 0.9407
vn 0.1251 0.9188 0.3745
vn 0.3046 0.1501 0.9406
vn 0.2789 0.1662 0.9458
vn 0.3191 0.9189 0.2321
vn 0.8065 0.1581 0.5696
vn 0.7921 0.1572 0.5898
vn 0.9876 0.1564 -0.0101
vn 0.7137 0.7004 0.0000
vn 0.5774 0.7005 -0.4195
vn 0.5774 0.7005 0.4195
vn 0.2205 0.7005 0.6787
vn -0.2205 0.7005 0.6787
vn -0.5774 0.7005 0.4195
vn -0.7137 0.7004 0.0000
vn -0.5774 0.7005 -0.4195
vn -0.2206 0.7005 -0.6787
vn 0.2205 0.7005 -0.6788
vn 0.8412 0.5408 -0.0000
vn 0.8412 -0.5407 0.0000
vn 0.6805 -0.5408 -0.4944
vn 0.6805 0.5407 -0.4944
vn 0.2600 -0.5407 -0.8000
vn 0.2599 0.5408 -0.8000
vn -0.2599 -0.5408 -0.8000
vn -0.2599 0.5408 -0.8000
vn -0.6806 -0.5407 -0.4944
vn -0.6805 0.5407 -0.4945
vn -0.8412 -0.5408 0.0000
vn -0.8412 0.5408 -0.0000
vn -0.6805 -0.5408 0.4944
vn -0.6805 0.5408 0.4944
vn -0.2599 -0.5407 0.8000
vn -0.2599 0.5408 0.8000
vn 0.2599 -0.5408 0.8000
vn 0.2599 0.5408 0.8000
vn 0.6805 -0.5408 0.4944
vn 0.6805 0.5408 0.4944
vn 0.5413 0.7432 -0.3933
vn 0.6690 0.7432 -0.0000
vn 0.5413 0.7432 0.3933
vn 0.2067 0.7433 0.6363
vn -0.2067 0.7432 0.6363
vn -0.5413 0.7432 0.3932
vn -0.6690 0.7432 -0.0000
vn -0.5413 0.7432 -0.3933
vn -0.2067 0.7432 -0.6363
vn 0.2068 0.7432 -0.6363
vn 0.7573 -0.6531 0.0000
vn 0.6127 -0.6531 -0.4451
vn 0.2340 -0.6531 -0.7202
vn -0.2340 -0.6531 -0.7202
vn -0.6127 -0.6530 -0.4452
vn -0.7573 -0.6531 0.0000
vn -0.6127 -0.6531 0.4451
vn -0.2340 -0.6531 0.7202
vn 0.2340 -0.6531 0.7202
vn 0.6127 -0.6531 0.4451
vn 0.6808 0.7324 0.0000
vn 0.5508 0.7324 -0.4002
vn 0.2104 0.7324 -0.6475
vn -0.2105 0.7324 -0.6476
vn -0.5508 0.7325 -0.4001
vn -0.6809 0.7324 0.0000
vn -0.5508 0.7324 0.4002
vn -0.2104 0.7324 0.6475
vn 0.2104 0.7324 0.6475
vn 0.5508 0.7324 0.4002
vn 0.5061 0.7833 -0.3608
vn 0.4859 0.4075 -0.7732
vn 0.5954 0.4093 -0.6913
vn 0.1949 0.7833 -0.5903
vn -0.1817 0.7832 -0.5946
vn -0.5784 0.4063 -0.7074
vn -0.4641 0.4106 -0.7849
vn -0.4974 0.7832 -0.3731
vn -0.6217 0.7832 -0.0052
vn -0.8476 0.4075 0.3399
vn -0.8879 0.4091 0.2106
vn -0.5044 0.7832 0.3635
vn -0.1682 0.7831 0.5987
vn 0.1133 0.4052 0.9072
vn -0.1126 0.4029 0.9083
vn 0.1687 0.7832 0.5985
vn 0.5037 0.7834 0.3642
vn 0.8877 0.4090 0.2116
vn 0.8406 0.4095 0.3546
vn 0.6215 0.7834 0.0040
vn 0.5634 0.3968 0.7247
vn -0.5628 0.3944 0.7265
vn 0.4798 0.4084 0.7765
vn 0.8465 0.4078 -0.3423
vn 0.8889 0.4098 -0.2049
vn -0.0655 0.4080 -0.9106
vn 0.0885 0.4109 -0.9074
vn -0.8842 0.4066 -0.2300
vn -0.8400 0.4097 -0.3557
vn -0.4817 0.4081 0.7755
vn -0.1478 0.2689 0.9518
vn 0.2483 0.6850 0.6850
vn 0.4090 0.8396 0.3575
vn 0.2139 0.3650 0.9061
vn 0.3792 0.6053 0.6999
vn 0.7458 0.5478 0.3790
vn 0.6158 0.7710 0.1621
vn 0.3539 0.2999 0.8859
vn 0.5406 0.6304 0.5571
vn 0.8056 0.5716 -0.1560
vn 0.5939 0.7974 -0.1066
vn 0.5716 0.8108 0.1262
vn 0.7826 0.6185 0.0707
vn 0.5298 0.5289 -0.6630
vn 0.2836 0.3119 -0.9068
vn 0.7595 0.6245 -0.1818
vn 0.7262 0.6675 -0.1646
vn 0.1898 0.5131 -0.8371
vn -0.0473 -0.2774 -0.9596
vn 0.5205 0.7998 -0.2990
vn 0.3948 0.6906 -0.6060
vn -0.3684 0.4483 -0.8144
vn -0.2889 0.9168 -0.2756
vn 0.0754 -0.0680 -0.9948
vn -0.1133 0.7458 -0.6564
vn -0.7070 0.5895 -0.3906
vn -0.4899 0.8518 -0.1856
vn -0.2775 0.4365 -0.8558
vn -0.5066 0.5954 -0.6236
vn -0.7542 0.6439 0.1286
vn -0.5760 0.7803 0.2438
vn -0.5615 0.7717 -0.2987
vn -0.7891 0.5551 -0.2629
vn -0.5129 0.7519 0.4141
vn -0.2756 0.6049 0.7471
vn -0.4443 0.8529 0.2741
vn -0.7246 0.4944 0.4801
vn -0.2066 0.7345 0.6465
vn -0.1674 0.1110 0.9796
vn -0.1741 0.8050 0.5671
# 180 vertex normals

vt 0.3330 0.9646 0.0000
vt 0.3768 0.9646 0.0000
vt 0.3768 0.9792 0.0000
vt 0.3330 0.9792 0.0000
vt 0.2892 0.9646 0.0000
vt 0.2892 0.9792 0.0000
vt 0.2454 0.9646 0.0000
vt 0.2454 0.9792 0.0000
vt 0.2016 0.9646 0.0000
vt 0.2016 0.9792 0.0000
vt 0.1578 0.9646 0.0000
vt 0.1578 0.9792 0.0000
vt 0.1139 0.9646 0.0000
vt 0.1139 0.9792 0.0000
vt 0.0701 0.9646 0.0000
vt 0.0701 0.9792 0.0000
vt 0.0263 0.9646 0.0000
vt 0.0263 0.9792 0.0000
vt 0.4206 0.9646 0.0000
vt 0.4644 0.9646 0.0000
vt 0.4644 0.9792 0.0000
vt 0.4206 0.9792 0.0000
vt 0.0958 0.8010 0.0000
vt 0.0889 0.7935 0.0000
vt 0.1149 0.7936 0.0000
vt 0.1080 0.8010 0.0000
vt 0.1218 0.8011 0.0000
vt 0.1408 0.7936 0.0000
vt 0.1339 0.8011 0.0000
vt 0.1477 0.8011 0.0000
vt 0.1668 0.7936 0.0000
vt 0.1599 0.8011 0.0000
vt 0.1737 0.8010 0.0000
vt 0.1927 0.7935 0.0000
vt 0.1859 0.8010 0.0000
vt 0.1997 0.8009 0.0000
vt 0.2187 0.7933 0.0000
vt 0.2118 0.8008 0.0000
vt 0.2256 0.8006 0.0000
vt 0.2446 0.7930 0.0000
vt 0.2378 0.8005 0.0000
vt 0.2516 0.8003 0.0000
vt 0.2705 0.7926 0.0000
vt 0.2638 0.8001 0.0000
vt 0.2775 0.7999 0.0000
vt 0.2964 0.7923 0.0000
vt 0.2897 0.7998 0.0000
vt 0.0437 0.8004 0.0000
vt 0.0372 0.7928 0.0000
vt 0.0630 0.7933 0.0000
vt 0.0560 0.8006 0.0000
vt 0.0698 0.8008 0.0000
vt 0.0820 0.8009 0.0000
vt 0.4522 0.6909 0.0000
vt 0.4781 0.7167 0.0000
vt 0.4615 0.7289 0.0000
vt 0.4403 0.7077 0.0000
vt 0.4193 0.6745 0.0000
vt 0.4144 0.6944 0.0000
vt 0.3819 0.6716 0.0000
vt 0.3873 0.6925 0.0000
vt 0.4231 0.8981 0.0000
vt 0.3857 0.9020 0.0000
vt 0.3906 0.8810 0.0000
vt 0.4175 0.8783 0.0000
vt 0.4554 0.8806 0.0000
vt 0.4431 0.8642 0.0000
vt 0.4805 0.8540 0.0000
vt 0.4635 0.8423 0.0000
vt 0.4962 0.8211 0.0000
vt 0.4764 0.8152 0.0000
vt 0.5012 0.7850 0.0000
vt 0.4805 0.7854 0.0000
vt 0.4949 0.7491 0.0000
vt 0.4753 0.7557 0.0000
vt 0.4569 0.6846 0.0000
vt 0.4694 0.6674 0.0000
vt 0.5019 0.6991 0.0000
vt 0.4848 0.7118 0.0000
vt 0.5231 0.7395 0.0000
vt 0.5028 0.7464 0.0000
vt 0.5309 0.7845 0.0000
vt 0.5096 0.7848 0.0000
vt 0.5247 0.8297 0.0000
vt 0.5042 0.8235 0.0000
vt 0.5049 0.8708 0.0000
vt 0.4873 0.8586 0.0000
vt 0.4734 0.9036 0.0000
vt 0.4603 0.8868 0.0000
vt 0.4339 0.9247 0.0000
vt 0.4257 0.9050 0.0000
vt 0.3927 0.9355 0.0000
vt 0.3865 0.9136 0.0000
vt 0.3822 0.6600 0.0000
vt 0.3878 0.6380 0.0000
vt 0.4293 0.6475 0.0000
vt 0.4217 0.6674 0.0000
vt 0.4813 0.7143 0.0000
vt 0.4543 0.6878 0.0000
vt 0.4201 0.6711 0.0000
vt 0.3820 0.6661 0.0000
vt 0.3860 0.9075 0.0000
vt 0.4240 0.9014 0.0000
vt 0.4577 0.8836 0.0000
vt 0.4838 0.8563 0.0000
vt 0.5001 0.8223 0.0000
vt 0.5052 0.7849 0.0000
vt 0.4987 0.7478 0.0000
vt 0.5622 0.7374 0.0000
vt 0.5475 0.7016 0.0000
vt 0.5513 0.6997 0.0000
vt 0.5663 0.7361 0.0000
vt 0.5703 0.7752 0.0000
vt 0.5745 0.7748 0.0000
vt 0.5702 0.8140 0.0000
vt 0.5745 0.8142 0.0000
vt 0.5658 0.8526 0.0000
vt 0.5700 0.8534 0.0000
vt 0.5555 0.8899 0.0000
vt 0.5594 0.8914 0.0000
vt 0.5381 0.9242 0.0000
vt 0.5415 0.9266 0.0000
vt 0.5128 0.9534 0.0000
vt 0.5158 0.9564 0.0000
vt 0.4801 0.9759 0.0000
vt 0.4838 0.9786 0.0000
vt 0.5262 0.6691 0.0000
vt 0.5000 0.6390 0.0000
vt 0.5041 0.6373 0.0000
vt 0.5298 0.6666 0.0000
vt 0.5535 0.6985 0.0000
vt 0.5687 0.7354 0.0000
vt 0.5769 0.7744 0.0000
vt 0.5770 0.8143 0.0000
vt 0.5724 0.8540 0.0000
vt 0.5616 0.8924 0.0000
vt 0.5435 0.9280 0.0000
vt 0.5176 0.9582 0.0000
vt 0.4853 0.9802 0.0000
vt 0.5057 0.6360 0.0000
vt 0.5320 0.6650 0.0000
vt 0.5611 0.6945 0.0000
vt 0.5769 0.7329 0.0000
vt 0.5388 0.6595 0.0000
vt 0.5097 0.6283 0.0000
vt 0.5234 0.9648 0.0000
vt 0.4876 0.9886 0.0000
vt 0.5507 0.9328 0.0000
vt 0.5696 0.8957 0.0000
vt 0.5809 0.8557 0.0000
vt 0.5856 0.8148 0.0000
vt 0.5856 0.7735 0.0000
vt 0.1149 0.7968 0.0000
vt 0.1106 0.8015 0.0000
vt 0.1452 0.8016 0.0000
vt 0.1409 0.7969 0.0000
vt 0.1669 0.7968 0.0000
vt 0.1627 0.8016 0.0000
vt 0.1972 0.8014 0.0000
vt 0.1928 0.7967 0.0000
vt 0.2187 0.7965 0.0000
vt 0.2145 0.8013 0.0000
vt 0.2490 0.8009 0.0000
vt 0.2446 0.7962 0.0000
vt 0.2704 0.7958 0.0000
vt 0.2659 0.8006 0.0000
vt 0.0415 0.8008 0.0000
vt 0.0370 0.7960 0.0000
vt 0.0630 0.7965 0.0000
vt 0.0586 0.8011 0.0000
vt 0.0933 0.8014 0.0000
vt 0.0890 0.7967 0.0000
vt 0.2970 0.7956 0.0000
vt 0.2928 0.8003 0.0000
vt 0.2745 0.8005 0.0000
vt 0.0672 0.8013 0.0000
vt 0.0846 0.8014 0.0000
vt 0.1193 0.8016 0.0000
vt 0.1366 0.8016 0.0000
vt 0.1713 0.8015 0.0000
vt 0.1886 0.8015 0.0000
vt 0.2231 0.8012 0.0000
vt 0.2404 0.8010 0.0000
vt 0.0328 0.8008 0.0000
vt 0.2787 0.9432 0.0000
vt 0.2909 0.9428 0.0000
vt 0.2931 0.9425 0.0000
vt 0.0316 0.9432 0.0000
vt 0.0402 0.9400 0.0000
vt 0.0423 0.9409 0.0000
vt 0.0545 0.9406 0.0000
vt 0.0572 0.9416 0.0000
vt 0.0659 0.9393 0.0000
vt 0.0687 0.9424 0.0000
vt 0.0809 0.9394 0.0000
vt 0.0837 0.9403 0.0000
vt 0.0924 0.9411 0.0000
vt 0.0951 0.9402 0.0000
vt 0.1074 0.9351 0.0000
vt 0.1102 0.9321 0.0000
vt 0.1190 0.9274 0.0000
vt 0.1216 0.9302 0.0000
vt 0.1338 0.9304 0.0000
vt 0.1366 0.9290 0.0000
vt 0.1453 0.9324 0.0000
vt 0.1480 0.9333 0.0000
vt 0.1602 0.9336 0.0000
vt 0.1632 0.9359 0.0000
vt 0.1719 0.9349 0.0000
vt 0.1744 0.9410 0.0000
vt 0.1866 0.9391 0.0000
vt 0.1896 0.9404 0.0000
vt 0.1983 0.9393 0.0000
vt 0.2009 0.9410 0.0000
vt 0.2131 0.9435 0.0000
vt 0.2159 0.9432 0.0000
vt 0.2247 0.9434 0.0000
vt 0.2273 0.9439 0.0000
vt 0.2396 0.9536 0.0000
vt 0.2424 0.9523 0.0000
vt 0.2512 0.9544 0.0000
vt 0.2538 0.9509 0.0000
vt 0.2660 0.9504 0.0000
vt 0.2680 0.9456 0.0000
vt 0.2768 0.9456 0.0000
vt 0.5696 0.1475 0.0000
vt 0.5685 0.1280 0.0000
vt 0.7372 0.1210 0.0000
vt 0.7381 0.1403 0.0000
vt 0.5645 0.1235 0.0000
vt 0.7409 0.1162 0.0000
vt 0.5700 0.0897 0.0000
vt 0.7314 0.0911 0.0000
vt 0.5763 0.0871 0.0000
vt 0.7268 0.0832 0.0000
vt 0.5860 0.0696 0.0000
vt 0.7143 0.0679 0.0000
vt 0.5871 0.0609 0.0000
vt 0.7150 0.0617 0.0000
vt 0.6087 0.0453 0.0000
vt 0.6933 0.0454 0.0000
vt 0.5929 0.1964 0.0000
vt 0.5817 0.1823 0.0000
vt 0.7305 0.1808 0.0000
vt 0.7211 0.1990 0.0000
vt 0.5929 0.2017 0.0000
vt 0.7201 0.2066 0.0000
vt 0.6130 0.2193 0.0000
vt 0.6981 0.2211 0.0000
vt 0.5757 0.1785 0.0000
vt 0.5659 0.1526 0.0000
vt 0.7422 0.1446 0.0000
vt 0.7357 0.1729 0.0000
vt 0.6159 0.0360 0.0000
vt 0.6895 0.0416 0.0000
vt 0.6348 0.0306 0.0000
vt 0.6704 0.0344 0.0000
vt 0.6665 0.0319 0.0000
vt 0.6399 0.0270 0.0000
vt 0.6215 0.2316 0.0000
vt 0.6935 0.2263 0.0000
vt 0.6399 0.2382 0.0000
vt 0.6745 0.2350 0.0000
vt 0.6716 0.2399 0.0000
vt 0.6449 0.2438 0.0000
# 265 texture coords

o Object021
g Object021
usemtl 01
s off
f 1/1/1 2/2/2 3/3/3 4/4/4 
f 5/5/5 1/1/1 4/4/4 6/6/6 
f 7/7/7 5/5/5 6/6/6 8/8/8 
f 9/9/9 7/7/7 8/8/8 10/10/10 
f 11/11/11 9/9/9 10/10/10 12/12/12 
f 13/13/13 11/11/11 12/12/12 14/14/14 
f 15/15/15 13/13/13 14/14/14 16/16/16 
f 17/17/17 15/15/15 16/16/16 18/18/18 
f 19/19/19 17/20/17 18/21/18 20/22/20 
f 2/2/2 19/19/19 20/22/20 3/3/3 
f 21/23/21 22/24/22 23/25/23 24/26/24 
f 25/27/25 23/25/23 26/28/26 27/29/27 
f 28/30/28 26/28/26 29/31/29 30/32/30 
f 31/33/31 29/31/29 32/34/32 33/35/33 
f 34/36/34 32/34/32 35/37/35 36/38/36 
f 37/39/37 35/37/35 38/40/38 39/41/39 
f 40/42/40 38/40/38 41/43/41 42/44/42 
f 43/45/43 41/43/41 44/46/44 45/47/45 
f 46/48/46 44/49/44 47/50/47 48/51/48 
f 49/52/49 47/50/47 22/24/22 50/53/50 
f 51/54/51 52/55/52 23/56/23 22/57/22 
f 53/58/53 51/54/51 22/57/22 47/59/47 
f 54/60/54 53/58/53 47/59/47 44/61/44 
f 55/62/55 54/63/54 44/64/44 41/65/41 
f 56/66/56 55/62/55 41/65/41 38/67/38 
f 57/68/57 56/66/56 38/67/38 35/69/35 
f 58/70/58 57/68/57 35/69/35 32/71/32 
f 59/72/59 58/70/58 32/71/32 29/73/29 
f 60/74/60 59/72/59 29/73/29 26/75/26 
f 52/55/52 60/74/60 26/75/26 23/56/23 
f 61/76/61 62/77/62 63/78/63 64/79/64 
f 64/79/64 63/78/63 65/80/65 66/81/66 
f 66/81/66 65/80/65 67/82/67 68/83/68 
f 68/83/68 67/82/67 69/84/69 70/85/70 
f 70/85/70 69/84/69 71/86/71 72/87/72 
f 72/87/72 71/86/71 73/88/73 74/89/74 
f 74/89/74 73/88/73 75/90/75 76/91/76 
f 76/91/76 75/90/75 77/92/77 78/93/78 
f 78/94/78 77/95/77 79/96/79 80/97/80 
f 80/97/80 79/96/79 62/77/62 61/76/61 
f 61/76/61 64/79/64 81/98/81 82/99/82 
f 80/97/80 61/76/61 82/99/82 83/100/83 
f 78/94/78 80/97/80 83/100/83 84/101/84 
f 76/91/76 78/93/78 84/102/84 85/103/85 
f 74/89/74 76/91/76 85/103/85 86/104/86 
f 72/87/72 74/89/74 86/104/86 87/105/87 
f 70/85/70 72/87/72 87/105/87 88/106/88 
f 68/83/68 70/85/70 88/106/88 89/107/89 
f 66/81/66 68/83/68 89/107/89 90/108/90 
f 64/79/64 66/81/66 90/108/90 81/98/81 
f 63/109/63 62/110/62 91/111/91 92/112/92 
f 65/113/65 63/109/63 92/112/92 93/114/93 
f 67/115/67 65/113/65 93/114/93 94/116/94 
f 69/117/69 67/115/67 94/116/94 95/118/95 
f 71/119/71 69/117/69 95/118/95 96/120/96 
f 73/121/73 71/119/71 96/120/96 97/122/97 
f 75/123/75 73/121/73 97/122/97 98/124/98 
f 77/125/77 75/123/75 98/124/98 99/126/99 
f 79/127/79 77/128/77 99/129/99 100/130/100 
f 62/110/62 79/127/79 100/130/100 91/111/91 
f 81/98/81 52/55/52 51/54/51 82/99/82 
f 82/99/82 51/54/51 53/58/53 83/100/83 
f 83/100/83 53/58/53 54/60/54 84/101/84 
f 84/102/84 54/63/54 55/62/55 85/103/85 
f 85/103/85 55/62/55 56/66/56 86/104/86 
f 86/104/86 56/66/56 57/68/57 87/105/87 
f 87/105/87 57/68/57 58/70/58 88/106/88 
f 88/106/88 58/70/58 59/72/59 89/107/89 
f 89/107/89 59/72/59 60/74/60 90/108/90 
f 90/108/90 60/74/60 52/55/52 81/98/81 
s 1
f 91/111/91 101/131/101 102/132/102 92/112/92 
f 92/112/92 102/132/102 103/133/103 93/114/93 
f 93/114/93 103/133/103 104/134/104 94/116/94 
f 94/116/94 104/134/104 105/135/105 95/118/95 
f 95/118/95 105/135/105 106/136/106 96/120/96 
f 96/120/96 106/136/106 107/137/107 97/122/97 
f 97/122/97 107/137/107 108/138/108 98/124/98 
f 98/124/98 108/138/108 109/139/109 99/126/99 
f 99/129/99 109/140/109 110/141/110 100/130/100 
f 100/130/100 110/141/110 101/131/101 91/111/91 
s off
f 2/142/2 1/143/1 102/132/102 101/131/101 
f 19/144/19 2/142/2 101/131/101 110/141/110 
f 17/145/17 19/144/19 110/141/110 109/140/109 
f 15/146/15 17/147/17 109/139/109 108/138/108 
f 13/148/13 15/146/15 108/138/108 107/137/107 
f 11/149/11 13/148/13 107/137/107 106/136/106 
f 9/150/9 11/149/11 106/136/106 105/135/105 
f 7/151/7 9/150/9 105/135/105 104/134/104 
f 5/152/5 7/151/7 104/134/104 103/133/103 
f 1/143/1 5/152/5 103/133/103 102/132/102 
f 111/153/111 112/154/112 24/26/24 23/25/23 
f 28/30/28 113/155/113 114/156/114 26/28/26 
f 115/157/115 116/158/116 30/32/30 29/31/29 
f 34/36/34 117/159/117 118/160/118 32/34/32 
f 119/161/119 120/162/120 36/38/36 35/37/35 
f 40/42/40 121/163/121 122/164/122 38/40/38 
f 123/165/123 124/166/124 42/44/42 41/43/41 
f 46/48/46 125/167/125 126/168/126 44/49/44 
f 127/169/127 128/170/128 48/51/48 47/50/47 
f 21/23/21 129/171/129 130/172/130 22/24/22 
f 126/173/126 131/174/131 45/47/45 44/46/44 
f 43/45/43 132/175/132 123/165/123 41/43/41 
f 49/52/49 133/176/133 127/169/127 47/50/47 
f 130/172/130 134/177/134 50/53/50 22/24/22 
f 25/27/25 135/178/135 111/153/111 23/25/23 
f 114/156/114 136/179/136 27/29/27 26/28/26 
f 31/33/31 137/180/137 115/157/115 29/31/29 
f 118/160/118 138/181/138 33/35/33 32/34/32 
f 37/39/37 139/182/139 119/161/119 35/37/35 
f 122/164/122 140/183/140 39/41/39 38/40/38 
f 126/168/126 125/167/125 131/184/131 
f 123/165/123 132/175/132 124/166/124 
f 127/169/127 133/176/133 128/170/128 
f 130/172/130 129/171/129 134/177/134 
f 111/153/111 135/178/135 112/154/112 
f 114/156/114 113/155/113 136/179/136 
f 115/157/115 137/180/137 116/158/116 
f 118/160/118 117/159/117 138/181/138 
f 119/161/119 139/182/139 120/162/120 
f 122/164/122 121/163/121 140/183/140 
s 2
f 141/185/141 43/45/43 45/47/45 142/186/142 
s off
f 142/186/142 45/47/45 131/174/131 143/187/143 
s 1
f 143/188/143 131/184/131 125/167/125 144/189/144 
s off
f 144/189/144 125/167/125 46/48/46 145/190/145 
s 2
f 145/190/145 46/48/46 48/51/48 146/191/146 
s off
f 146/191/146 48/51/48 128/170/128 147/192/147 
s 1
f 147/192/147 128/170/128 133/176/133 148/193/148 
s off
f 148/193/148 133/176/133 49/52/49 149/194/149 
s 2
f 149/194/149 49/52/49 50/53/50 150/195/150 
s off
f 150/195/150 50/53/50 134/177/134 151/196/151 
s 1
f 151/196/151 134/177/134 129/171/129 152/197/152 
s off
f 152/197/152 129/171/129 21/23/21 153/198/153 
s 2
f 153/198/153 21/23/21 24/26/24 154/199/154 
s off
f 154/199/154 24/26/24 112/154/112 155/200/155 
s 1
f 155/200/155 112/154/112 135/178/135 156/201/156 
s off
f 156/201/156 135/178/135 25/27/25 157/202/157 
s 2
f 157/202/157 25/27/25 27/29/27 158/203/158 
s off
f 158/203/158 27/29/27 136/179/136 159/204/159 
s 1
f 159/204/159 136/179/136 113/155/113 160/205/160 
s off
f 160/205/160 113/155/113 28/30/28 161/206/161 
s 2
f 161/206/161 28/30/28 30/32/30 162/207/162 
s off
f 162/207/162 30/32/30 116/158/116 163/208/163 
s 1
f 163/208/163 116/158/116 137/180/137 164/209/164 
s off
f 164/209/164 137/180/137 31/33/31 165/210/165 
s 2
f 165/210/165 31/33/31 33/35/33 166/211/166 
s off
f 166/211/166 33/35/33 138/181/138 167/212/167 
s 1
f 167/212/167 138/181/138 117/159/117 168/213/168 
s off
f 168/213/168 117/159/117 34/36/34 169/214/169 
s 2
f 169/214/169 34/36/34 36/38/36 170/215/170 
s off
f 170/215/170 36/38/36 120/162/120 171/216/171 
s 1
f 171/216/171 120/162/120 139/182/139 172/217/172 
s off
f 172/217/172 139/182/139 37/39/37 173/218/173 
s 2
f 173/218/173 37/39/37 39/41/39 174/219/174 
s off
f 174/219/174 39/41/39 140/183/140 175/220/175 
s 1
f 175/220/175 140/183/140 121/163/121 176/221/176 
s off
f 176/221/176 121/163/121 40/42/40 177/222/177 
s 2
f 177/222/177 40/42/40 42/44/42 178/223/178 
s off
f 178/223/178 42/44/42 124/166/124 179/224/179 
s 1
f 179/224/179 124/166/124 132/175/132 180/225/180 
s off
f 180/225/180 132/175/132 43/45/43 141/185/141 
s 2
f 171/226/171 172/227/172 151/228/151 152/229/152 
s 4
f 172/227/172 173/230/173 150/231/150 151/228/151 
s 1
f 173/230/173 174/232/174 149/233/149 150/231/150 
s 4
f 174/232/174 175/234/175 148/235/148 149/233/149 
s 2
f 175/234/175 176/236/176 147/237/147 148/235/148 
s 4
f 176/236/176 177/238/177 146/239/146 147/237/147 
s 1
f 177/238/177 178/240/178 145/241/145 146/239/146 
s 2
f 167/242/167 168/243/168 155/244/155 156/245/156 
s 4
f 166/246/166 167/242/167 156/245/156 157/247/157 
s 1
f 165/248/165 166/246/166 157/247/157 158/249/158 
f 169/250/169 170/251/170 153/252/153 154/253/154 
s 4
f 170/251/170 171/226/171 152/229/152 153/252/153 
f 168/243/168 169/250/169 154/253/154 155/244/155 
f 178/240/178 179/254/179 144/255/144 145/241/145 
s 2
f 179/254/179 180/256/180 143/257/143 144/255/144 
s off
f 142/258/142 143/257/143 180/256/180 141/259/141 
s 4
f 164/260/164 165/248/165 158/249/158 159/261/159 
s 2
f 163/262/163 164/260/164 159/261/159 160/263/160 
s off
f 161/264/161 162/265/162 163/262/163 160/263/160 
# 169 polygons - 10 triangles

